<!DOCTYPE svg PUBLIC "-//W3C//DTD SVG 1.1//EN" "http://www.w3.org/Graphics/SVG/1.1/DTD/svg11.dtd">
<!-- Uploaded to: SVG Repo, www.svgrepo.com, Transformed by: SVG Repo Mixer Tools -->
<svg fill="#95e9f9" width="197px" height="197px" viewBox="0 0 20 20" xmlns="http://www.w3.org/2000/svg">
<g id="SVGRepo_bgCarrier" stroke-width="0"/>
<g id="SVGRepo_tracerCarrier" stroke-linecap="round" stroke-linejoin="round" stroke="#CCCCCC" stroke-width="0.32"/>
<g id="SVGRepo_iconCarrier">
<path d="M12 10a2 2 0 0 1-3.41 1.41A2 2 0 0 1 10 8V0a9.97 9.97 0 0 1 10 10h-8zm7.9 1.41A10 10 0 1 1 8.59.1v2.03a8 8 0 1 0 9.29 9.29h2.02zm-4.07 0a6 6 0 1 1-7.25-7.25v2.1a3.99 3.99 0 0 0-1.4 6.57 4 4 0 0 0 6.56-1.42h2.1z"/>
</g>
</svg>